<?xml version="1.0" ?><svg height="24" id="svg1630" version="1.1" viewBox="0 0 6.3499999 6.3500002" width="24" xmlns="http://www.w3.org/2000/svg" xmlns:cc="http://creativecommons.org/ns#" xmlns:dc="http://purl.org/dc/elements/1.1/" xmlns:inkscape="http://www.inkscape.org/namespaces/inkscape" xmlns:rdf="http://www.w3.org/1999/02/22-rdf-syntax-ns#" xmlns:sodipodi="http://sodipodi.sourceforge.net/DTD/sodipodi-0.dtd" xmlns:svg="http://www.w3.org/2000/svg"><defs id="defs1624"/><g id="layer1"><path d="m 2.3745976,0.53036721 a 0.26459389,0.26450792 0 0 0 -0.06641,0.0156205 C 1.1290056,0.98175935 0.39950957,2.173895 0.54835357,3.4221189 c 0.148843,1.2482243 1.13625903,2.233934 2.38485803,2.3801796 1.2486,0.146245 2.437972,-0.5850607 2.8712068,-1.7651209 A 0.26459389,0.26450792 0 0 0 5.6481627,3.6974309 0.26459389,0.26450792 0 0 0 5.3083056,3.855589 C 4.9583965,4.8086811 4.0039505,5.3951497 2.9957146,5.2770577 1.9874796,5.1589657 1.1939826,4.3678086 1.0737636,3.3596368 0.95354657,2.3514652 1.5376296,1.3938313 2.4898356,1.0419398 a 0.26459389,0.26450792 0 0 0 0.158209,-0.33974669 0.26459389,0.26450792 0 0 0 -0.273447,-0.1718259 z" id="path2047" style="color:#000000;font-style:normal;font-variant:normal;font-weight:normal;font-stretch:normal;font-size:medium;line-height:normal;font-family:sans-serif;font-variant-ligatures:normal;font-variant-position:normal;font-variant-caps:normal;font-variant-numeric:normal;font-variant-alternates:normal;font-variant-east-asian:normal;font-feature-settings:normal;font-variation-settings:normal;text-indent:0;text-align:start;text-decoration:none;text-decoration-line:none;text-decoration-style:solid;text-decoration-color:#000000;letter-spacing:normal;word-spacing:normal;text-transform:none;writing-mode:lr-tb;direction:ltr;text-orientation:mixed;dominant-baseline:auto;baseline-shift:baseline;text-anchor:start;white-space:normal;shape-padding:0;shape-margin:0;inline-size:0;clip-rule:nonzero;display:inline;overflow:visible;visibility:visible;isolation:auto;mix-blend-mode:normal;color-interpolation:sRGB;color-interpolation-filters:linearRGB;solid-color:#000000;solid-opacity:1;vector-effect:none;fill:#3771c8;fill-opacity:1;fill-rule:nonzero;stroke:none;stroke-width:0.529101;stroke-linecap:round;stroke-linejoin:round;stroke-miterlimit:4;stroke-dasharray:none;stroke-dashoffset:0;stroke-opacity:1;color-rendering:auto;image-rendering:auto;shape-rendering:auto;text-rendering:auto;enable-background:accumulate;stop-color:#000000"/><path d="M 3.4553775,0.5354032 C 3.1557576,0.50329661 2.9059766,0.7570269 2.9065516,1.0422042 l 0.0041,2.1336271 a 0.26462019,0.26453421 0 0 0 0.264076,0.2639912 l 2.1064149,0.0031 C 5.5734996,3.4433467 5.8329336,3.1878389 5.7989966,2.8813611 5.7330124,2.2855578 5.4676777,1.7261474 5.0419065,1.2979294 4.6134185,0.86697945 4.0527955,0.59942114 3.4553775,0.5354032 Z" id="path2039" style="color:#000000;font-style:normal;font-variant:normal;font-weight:normal;font-stretch:normal;font-size:medium;line-height:normal;font-family:sans-serif;font-variant-ligatures:normal;font-variant-position:normal;font-variant-caps:normal;font-variant-numeric:normal;font-variant-alternates:normal;font-variant-east-asian:normal;font-feature-settings:normal;font-variation-settings:normal;text-indent:0;text-align:start;text-decoration:none;text-decoration-line:none;text-decoration-style:solid;text-decoration-color:#000000;letter-spacing:normal;word-spacing:normal;text-transform:none;writing-mode:lr-tb;direction:ltr;text-orientation:mixed;dominant-baseline:auto;baseline-shift:baseline;text-anchor:start;white-space:normal;shape-padding:0;shape-margin:0;inline-size:0;clip-rule:nonzero;display:inline;overflow:visible;visibility:visible;isolation:auto;mix-blend-mode:normal;color-interpolation:sRGB;color-interpolation-filters:linearRGB;solid-color:#000000;solid-opacity:1;vector-effect:none;fill:#87aade;fill-opacity:1;fill-rule:nonzero;stroke:none;stroke-width:0.529101;stroke-linecap:round;stroke-linejoin:round;stroke-miterlimit:4;stroke-dasharray:none;stroke-dashoffset:0;stroke-opacity:1;color-rendering:auto;image-rendering:auto;shape-rendering:auto;text-rendering:auto;enable-background:accumulate;stop-color:#000000"/></g></svg>